<?xml version="1.0" encoding="utf-8"?>
<!-- Generator: Adobe Illustrator 26.2.1, SVG Export Plug-In . SVG Version: 6.00 Build 0)  -->
<svg version="1.1" id="Layer_2_00000174559864727806322580000009692103217914820778_"
	 xmlns="http://www.w3.org/2000/svg" xmlns:xlink="http://www.w3.org/1999/xlink" x="0px" y="0px" viewBox="0 0 702.3 702.3"
	 style="enable-background:new 0 0 702.3 702.3;" xml:space="preserve">
<style type="text/css">
	.st0{fill:#1B345C;}
	.st1{fill:#FFFFFF;}
	.st2{fill:#29569C;}
</style>
<path class="st0" d="M87.5,0h527.3c48.3,0,87.5,39.2,87.5,87.5v527.3c0,48.3-39.2,87.5-87.5,87.5H87.5C39.2,702.3,0,663.2,0,614.8
	V87.5C0,39.2,39.2,0,87.5,0z"/>
<path class="st1" d="M206.3,237.8c-12.7-12.7-28.1-19.1-45.9-19.1s-33.2,6.4-45.9,19.1c-12.7,12.7-19.1,28.1-19.1,45.9
	c0,17.8,6.4,33.2,19.1,45.9c12.7,12.7,28.1,19.1,45.9,19.1c9,0,16.9-1.1,23.3-3.1c2.7-0.8,4.7-2.6,6-5.2c1.3-2.5,1.4-5.1,0.6-7.7
	c-1.6-4.6-5-7.2-9.7-7.2c-1.1,0-2.1,0.2-3.2,0.6c-4.6,1.4-10.3,2.2-17,2.2c-12.2,0-22.8-4.4-31.5-13.1c-8.7-8.7-13.1-19.2-13.1-31.5
	c0-12.2,4.4-22.7,13.1-31.3c8.7-8.6,19.3-13,31.5-13s22.7,4.4,31.3,13c8.6,8.6,13,19.2,13,31.3v54.7c0,3,1.1,5.4,3.1,7.3
	c2,1.9,4.5,3,7.3,3s5.2-1,7.3-3c2-2,3-4.5,3-7.3v-54.7C225.3,266,218.8,250.5,206.3,237.8L206.3,237.8z"/>
<path class="st1" d="M388.7,280.1c-0.9-17-7.7-31.6-20-43.5c-12.4-11.9-27.4-17.9-44.7-17.9c-17.3,0-33.2,6.4-45.9,19.1
	C265.4,250.5,259,266,259,283.8c0,17.8,6.4,33.2,19.1,45.9c12.7,12.7,28.1,19.1,45.9,19.1c6.8,0,13.6-1.1,20.3-3.1
	c2.7-0.8,4.7-2.6,6-5.2c1.3-2.5,1.4-5.1,0.6-7.7c-1.6-4.6-5-7.2-9.7-7.2c-1.3,0-2.4,0.2-3.5,0.6c-4.4,1.4-8.9,2.2-13.7,2.2
	c-12.2,0-22.8-4.4-31.5-13.1s-13.1-19.2-13.1-31.5s4.4-22.7,13.1-31.3c8.7-8.6,19.3-13,31.5-13c12.2,0,22.7,4.4,31.3,13
	c8.6,8.6,13,19.2,13,31.3v54.4c0,12.2-4.4,22.7-13,31.2c-8.6,8.5-19.2,12.8-31.3,12.8c-10.9,0-20.5-3.5-28.7-10.3
	c-1.9-1.4-4.1-2.2-6.6-2.2c-3.1,0-5.7,1.2-7.8,3.5l-0.1,0.1c-1.9,2.3-2.6,4.9-2.4,7.7c0.3,2.8,1.5,5.1,3.6,6.8
	c12.1,10.1,26.2,15.3,41.9,15.3c17.8,0,33.2-6.4,45.9-18.9c12.7-12.6,19.1-28,19.1-45.8v-56.5C389,281.2,388.9,280.7,388.7,280.1
	L388.7,280.1z"/>
<path class="st1" d="M524.1,235.9c-11.4-11.4-25.3-17.1-41.4-17.1c-16,0-30,5.7-41.4,17.1c-11.4,11.4-17.1,25.3-17.1,41.4v61
	c0,2.9,1,5.4,3,7.3c1.9,2,4.4,3,7.3,3c2.8,0,5.2-1,7.3-3c2-2,3-4.5,3-7.3v-61c0-10.5,3.8-19.5,11.1-26.8
	c7.3-7.3,16.5-11.1,26.8-11.1c6.9,0,13.4,1.7,19.2,5c5.8,3.3,10.4,7.9,13.7,13.7c3.3,5.8,5,12.3,5,19.2v61c0,3,1.1,5.4,3.1,7.3
	c2,1.9,4.5,3,7.3,3c2.8,0,5.2-1,7.3-3c2-1.9,3-4.5,3-7.3v-61C541.2,261.2,535.5,247.3,524.1,235.9L524.1,235.9z"/>
<path class="st1" d="M595.4,173c-2-2-4.4-3-7.3-3c-2.8,0-5.2,1-7.3,3c-2,2-3,4.5-3,7.3v0.8c0,2.9,1,5.4,3,7.3c2,2,4.4,3,7.3,3
	c2.8,0,5.2-1,7.3-3s3-4.5,3-7.3v-0.8C598.4,177.4,597.4,175,595.4,173z"/>
<path class="st1" d="M588.2,218.8c-2.8,0-5.2,1-7.3,3c-2,2-3,4.5-3,7.3v109.3c0,2.9,1,5.4,3,7.3c1.9,2,4.4,3,7.3,3
	c2.8,0,5.2-1,7.3-3c2-2,3-4.5,3-7.3V229.2c0-2.9-1-5.4-3-7.3C593.4,219.8,591,218.8,588.2,218.8z"/>
<path class="st2" d="M0,614.8c0,48.3,39.2,87.5,87.5,87.5h527.3c48.3,0,87.5-39.2,87.5-87.5V542H0V614.8z"/>
<path class="st1" d="M284.7,631.4c-0.6-0.8-1.4-1.2-2.4-1.2c-0.6,0-1.2,0.2-1.7,0.5h-0.1c-3.3,2.5-7.2,3.7-11.3,3.7
	c-5.3,0-9.9-1.9-13.7-5.7s-5.7-8.4-5.7-13.7s1.9-9.9,5.7-13.7s8.4-5.7,13.7-5.7c4.2,0,8,1.2,11.4,3.7h0.1c0.5,0.3,1.1,0.5,1.7,0.5
	c1,0,1.8-0.4,2.4-1.2l0,0c0.4-0.7,0.6-1.4,0.5-2.2s-0.5-1.4-1.1-1.9l0,0c-4.4-3.2-9.4-4.8-14.8-4.8c-4.5,0-8.8,1.1-12.7,3.4
	s-7,5.3-9.2,9.2c-2.2,3.8-3.4,8.1-3.4,12.7c0,3.4,0.7,6.7,2,9.8s3.1,5.8,5.4,8c2.2,2.2,5,4,8.1,5.4c3.1,1.3,6.4,2,9.8,2
	c5.5,0,10.4-1.6,14.8-4.8l0,0c0.6-0.5,1-1.1,1.1-1.9C285.3,632.9,285.1,632.1,284.7,631.4L284.7,631.4L284.7,631.4z"/>
<path class="st1" d="M299.8,590.2L299.8,590.2c-0.5-0.2-1-0.4-1.5-0.4c-0.8,0-1.5,0.3-2.1,0.9c-0.6,0.6-0.9,1.3-0.9,2.1v44.5
	c0,0.8,0.3,1.5,0.9,2.1s1.3,0.9,2.1,0.9s1.5-0.3,2.1-0.9c0.6-0.6,0.9-1.3,0.9-2.1v-44.5c0-0.5-0.1-1-0.4-1.5
	C300.7,590.9,300.3,590.5,299.8,590.2L299.8,590.2z"/>
<path class="st1" d="M329.1,604.6c-4.9,0-9.2,1.8-12.6,5.2c-3.5,3.5-5.2,7.7-5.2,12.6s1.8,9.2,5.2,12.6s7.7,5.2,12.6,5.2
	s9.2-1.8,12.6-5.2c3.5-3.5,5.2-7.7,5.2-12.6s-1.8-9.2-5.2-12.6S334.1,604.6,329.1,604.6z M341.1,622.5c0,3.3-1.2,6.1-3.5,8.5
	c-2.3,2.3-5.2,3.5-8.5,3.5s-6.1-1.2-8.5-3.5s-3.5-5.2-3.5-8.5s1.2-6.1,3.5-8.5c2.3-2.3,5.2-3.5,8.5-3.5s6.1,1.2,8.5,3.5
	S341.1,619.2,341.1,622.5z"/>
<path class="st1" d="M385.8,604.6c-0.8,0-1.5,0.3-2.1,0.9c-0.6,0.6-0.9,1.3-0.9,2.1v16.7c0,2.8-1,5.2-3,7.2s-4.4,3-7.2,3
	s-5.2-1-7.2-3s-3-4.4-3-7.2v-16.7c0-0.5-0.1-1-0.4-1.5s-0.6-0.9-1.1-1.1c-0.5-0.2-1-0.4-1.5-0.4c-0.8,0-1.5,0.3-2.1,0.9
	s-0.9,1.3-0.9,2.1v16.7c0,4.4,1.6,8.2,4.7,11.3s7,4.7,11.4,4.7s8.2-1.6,11.3-4.7c3.1-3.1,4.7-7,4.7-11.3v-16.7
	c0-0.8-0.3-1.5-0.9-2.1C387.3,604.9,386.6,604.6,385.8,604.6L385.8,604.6z"/>
<path class="st1" d="M430.2,589.9c-0.8,0-1.5,0.3-2.1,0.9c-0.6,0.6-0.9,1.3-0.9,2.1v29.8c0,3.3-1.2,6.1-3.5,8.4
	c-2.3,2.3-5.2,3.5-8.4,3.5c-2.2,0-4.2-0.5-6-1.6s-3.3-2.5-4.4-4.3s-1.6-3.8-1.6-5.9s0.5-4.1,1.6-5.9c1.1-1.8,2.5-3.3,4.4-4.3
	c1.8-1.1,3.9-1.6,6-1.6c1.3,0,2.5,0.2,3.6,0.6c0.3,0.1,0.6,0.2,1,0.2c1.4,0,2.4-0.7,2.8-2.1c0.2-0.8,0.2-1.5-0.2-2.2
	c-0.4-0.7-1-1.2-1.7-1.5c-1.8-0.6-3.7-0.9-5.5-0.9c-4.9,0-9.2,1.8-12.7,5.2c-3.5,3.5-5.2,7.7-5.2,12.5s1.8,9.1,5.2,12.5
	s7.7,5.2,12.6,5.2s9.2-1.8,12.6-5.2c3.5-3.5,5.2-7.7,5.2-12.5V593c0-0.8-0.3-1.5-0.9-2.1C431.7,590.1,431,589.9,430.2,589.9
	L430.2,589.9z"/>
<path class="st1" d="M484,590.1L484,590.1c-0.3-0.1-0.7-0.2-1.1-0.2c-1.3,0-2.2,0.6-2.7,1.8L467.7,622c-0.3,0.8-0.3,1.5,0,2.3
	s0.9,1.3,1.6,1.6c0.3,0.1,0.7,0.2,1.1,0.2c1.3,0,2.2-0.6,2.7-1.8l12.5-30.4c0.3-0.8,0.3-1.5,0-2.3S484.7,590.4,484,590.1L484,590.1z
	"/>
<path class="st1" d="M447.6,591.7c-0.5-1.2-1.5-1.8-2.7-1.8c-0.4,0-0.8,0.1-1.1,0.3c-0.7,0.3-1.3,0.8-1.6,1.5
	c-0.3,0.8-0.3,1.5,0.1,2.3l19.1,44.5c0.5,1.2,1.4,1.8,2.7,1.8c0.4,0,0.8-0.1,1.1-0.2l0,0c0.7-0.4,1.2-0.9,1.5-1.6
	c0.3-0.7,0.3-1.5,0-2.2L447.6,591.7L447.6,591.7z"/>
<path class="st1" d="M498,591.3c-0.8,0-1.5,0.3-2.1,0.9c-0.6,0.6-0.8,1.3-0.8,2.1v0.2c0,0.8,0.3,1.5,0.9,2.1s1.3,0.8,2.1,0.8
	c0.5,0,1-0.1,1.5-0.4c0.5-0.3,0.9-0.6,1.1-1.1s0.4-1,0.4-1.5v-0.2c0-0.8-0.3-1.5-0.8-2.1C499.5,591.6,498.8,591.3,498,591.3
	L498,591.3z"/>
<path class="st1" d="M499.2,605.3L499.2,605.3c-0.4-0.2-0.9-0.3-1.3-0.3c-0.7,0-1.3,0.2-1.8,0.8c-0.5,0.5-0.8,1.1-0.8,1.8v29.8
	c0,0.7,0.2,1.3,0.8,1.8c0.5,0.5,1.1,0.8,1.8,0.8s1.3-0.2,1.8-0.8c0.5-0.5,0.8-1.1,0.8-1.8v-29.8c0-0.4-0.1-0.9-0.3-1.3
	C500,605.8,499.7,605.5,499.2,605.3L499.2,605.3z"/>
<path class="st1" d="M549.8,605L549.8,605c-0.5-0.2-1-0.4-1.5-0.4c-0.8,0-1.5,0.3-2.1,0.9c-0.6,0.6-0.9,1.3-0.9,2.1v29.8
	c0,0.8,0.3,1.5,0.9,2.1c0.6,0.6,1.3,0.9,2.1,0.9s1.5-0.3,2.1-0.8c0.6-0.6,0.8-1.3,0.8-2.1v-29.8c0-0.5-0.1-1-0.4-1.5
	C550.6,605.6,550.2,605.2,549.8,605L549.8,605z"/>
<path class="st1" d="M548.3,591.3c-0.8,0-1.5,0.3-2.1,0.9c-0.6,0.6-0.8,1.3-0.8,2.1v0.2c0,0.8,0.3,1.5,0.9,2.1
	c0.6,0.6,1.3,0.9,2.1,0.9c0.5,0,1-0.1,1.5-0.4c0.5-0.3,0.9-0.6,1.1-1.1c0.2-0.5,0.4-1,0.4-1.5v-0.2c0-0.8-0.3-1.5-0.8-2.1
	C549.8,591.6,549.1,591.3,548.3,591.3z"/>
<path class="st1" d="M579.1,604.6c-4.9,0-9.2,1.8-12.6,5.2c-3.5,3.5-5.2,7.7-5.2,12.6s1.8,9.2,5.2,12.6c3.5,3.5,7.7,5.2,12.6,5.2
	s9.2-1.8,12.6-5.2c3.5-3.5,5.2-7.7,5.2-12.6s-1.8-9.2-5.2-12.6C588.2,606.4,584,604.6,579.1,604.6z M591,622.5
	c0,3.3-1.2,6.1-3.5,8.5s-5.2,3.5-8.5,3.5s-6.1-1.2-8.5-3.5s-3.5-5.2-3.5-8.5s1.2-6.1,3.5-8.5s5.2-3.5,8.5-3.5s6.1,1.2,8.5,3.5
	S591,619.2,591,622.5z"/>
<path class="st1" d="M633,609.3L633,609.3c-3.1-3.1-6.9-4.7-11.3-4.7s-8.2,1.6-11.4,4.7c-3.1,3.1-4.7,6.9-4.7,11.4v16.7
	c0,0.8,0.3,1.5,0.9,2.1c0.6,0.6,1.3,0.9,2.1,0.9s1.5-0.3,2.1-0.8c0.6-0.6,0.8-1.3,0.8-2.1v-16.7c0-2.8,1-5.2,3-7.2s4.4-3,7.2-3
	s5.2,1,7.2,3s3,4.4,3,7.2v16.7c0,0.8,0.3,1.5,0.9,2.1c0.6,0.6,1.3,0.9,2.1,0.9s1.5-0.3,2.1-0.9c0.6-0.6,0.9-1.3,0.9-2.1v-16.7
	C637.7,616.2,636.1,612.4,633,609.3L633,609.3z"/>
<path class="st1" d="M532.4,622.9c-1.9-1.5-3.7-2.3-6.1-2.8c-0.4-0.1-0.9-0.2-1.5-0.2c-1.1-0.2-2.4-0.4-3.5-0.7
	c-1.3-0.4-2.6-0.8-3.3-1.7s-0.9-2-0.7-3.2c0.7-3.3,5-3.8,6.2-3.9c1.5-0.1,3,0,4.4,0.4c0.7,0.2,1.4,0.5,2,0.8
	c0.1,0.1,0.2,0.1,0.3,0.2c0.5,0.3,1,0.5,1.6,0.5c1.3,0.1,2.5-0.9,2.7-2.3c0.1-0.7-0.1-1.4-0.5-1.9s-1-0.8-1.5-1.1l-0.2-0.1
	c-2.5-1.3-5.4-2-8.4-1.9c-3.3,0.1-5.9,0.8-8,2.3c-2.2,1.7-3.7,4.1-4,6.7c-0.3,2.7,0.5,5.2,2.1,7c0.6,0.7,1.4,1.3,2.5,2
	s2.3,1.1,3.7,1.6c1.2,0.4,2.3,0.6,3.5,0.8c0.4,0.1,0.8,0.1,1.2,0.2c1.5,0.3,2.4,0.6,3.4,1.1c1.1,0.5,1.8,1.3,2.1,2.4
	c0.3,1.1,0,2.5-0.7,3.5c-1,1.2-2.5,1.8-3.3,2c-2.8,0.8-6,0.4-8.6-0.9c-0.1-0.1-0.2-0.1-0.4-0.2c-0.5-0.3-1-0.5-1.6-0.6
	c-0.7,0-1.3,0.2-1.8,0.6c-1.1,0.9-1.3,2.5-0.5,3.6c0.4,0.5,0.9,0.8,1.4,1l0.2,0.1c0.6,0.3,1.3,0.6,1.9,0.9c1.3,0.5,2.8,0.8,4.3,1
	c0.6,0.1,1.3,0.1,2.1,0.1c2,0,4.4-0.3,6.5-1.4c2.5-1.2,4.4-3.3,5.2-5.7c0.9-2.5,0.6-5.4-0.6-7.5
	C534.2,624.5,533.4,623.6,532.4,622.9L532.4,622.9z"/>
<path class="st1" d="M119.9,620.3l8.9,16.2c-1,0.8-1.9,1.9-2.4,3.2l-34-7.7c0-0.1,0-0.2,0-0.3c0-1-0.2-2-0.5-2.9l18.9-11.1
	c1.6,1.8,3.8,2.9,6.4,2.9C118.2,620.7,119.1,620.6,119.9,620.3L119.9,620.3z M153.7,601.2c-0.5,0-1,0-1.5-0.2l-13.4,34.9
	c1.7,1,3,2.7,3.6,4.6l39.2-5.3c0.1-1.9,0.8-3.6,1.9-4.9L157.9,600C156.7,600.7,155.2,601.2,153.7,601.2L153.7,601.2z M147.1,598
	l-21.7,11.7c0.3,0.8,0.4,1.7,0.4,2.6c0,2.6-1.2,5-3.1,6.6l8.9,16.2c0.8-0.3,1.7-0.4,2.6-0.4c0.5,0,1,0,1.5,0.2l13.4-34.9
	C148.4,599.4,147.7,598.7,147.1,598L147.1,598z M209.6,635.7c0,12.6-10.2,22.8-22.8,22.8c-0.2,0-0.4,0-0.6,0h-3.6l-84.8,0.3
	c-1,0.1-2.9,0-3.9,0c-16.2,0-29.3-13.2-29.3-29.3s13.2-29.3,29.3-29.3c3,0,5.8,0.4,8.5,1.3c5.7-17.4,22.1-30.1,41.4-30.1
	c23.3,0,42.5,18.4,43.6,41.5C199.7,613.2,209.6,623.3,209.6,635.7L209.6,635.7z M198.6,635.6c0-4.7-3.8-8.5-8.5-8.5
	c-1.5,0-2.9,0.4-4.2,1.1L160.3,598c1.2-1.5,1.9-3.3,1.9-5.4c0-4.7-3.8-8.5-8.5-8.5s-8.5,3.8-8.5,8.5c0,0.9,0.1,1.8,0.4,2.6
	l-21.7,11.7c-1.6-1.9-3.9-3.2-6.6-3.2c-4.7,0-8.5,3.8-8.5,8.5c0,1,0.2,2,0.5,2.9l-18.9,11.1c-1.6-1.8-3.8-2.9-6.4-2.9
	c-4.7,0-8.5,3.8-8.5,8.5s3.8,8.5,8.5,8.5c3.5,0,6.5-2.1,7.8-5.1l34,7.7c0,0.1,0,0.2,0,0.3c0,4.7,3.8,8.5,8.5,8.5s8.2-3.6,8.5-8
	l39.2-5.3c1.1,3.4,4.3,5.8,8.1,5.8C194.7,644.1,198.5,640.3,198.6,635.6L198.6,635.6z"/>
</svg>
