<?xml version="1.0" encoding="utf-8"?>
<!-- Generator: Adobe Illustrator 24.1.0, SVG Export Plug-In . SVG Version: 6.00 Build 0)  -->
<svg version="1.1" id="Layer_1" xmlns="http://www.w3.org/2000/svg" xmlns:xlink="http://www.w3.org/1999/xlink" x="0px" y="0px"
	 viewBox="0 0 702.3 702.3" style="enable-background:new 0 0 702.3 702.3;" xml:space="preserve">
<style type="text/css">
	.st0{fill:#16325B;}
	.st1{fill:#FFFFFF;}
	.st2{clip-path:url(#SVGID_2_);}
	.st3{clip-path:url(#SVGID_4_);fill:#FFFFFF;}
</style>
<path class="st0" d="M87.5,0h527.3c48.3,0,87.5,39.2,87.5,87.5v527.3c0,48.3-39.2,87.5-87.5,87.5H87.5C39.2,702.3,0,663.2,0,614.8
	V87.5C0,39.2,39.2,0,87.5,0z"/>
<path class="st1" d="M300.5,280l25.8,47c-3,2.5-5.4,5.6-6.9,9.2L221,314c0-0.3,0-0.6,0-0.9c0-2.8-0.5-5.6-1.4-8.3l54.7-32
	C280.7,280.3,291.1,283.2,300.5,280L300.5,280z M398.1,224.6c-1.5,0-3-0.1-4.4-0.4l-38.9,100.9c4.9,3,8.6,7.7,10.4,13.2L478.7,323
	c0.3-5.2,2.2-10.2,5.5-14.2l-73.9-87.4C406.5,223.5,402.4,224.6,398.1,224.6L398.1,224.6z M379,215.5l-62.8,33.8
	c3.1,9.6,0,20-7.8,26.4l25.8,46.9c2.5-0.8,5.1-1.2,7.7-1.2c1.5,0,3,0.1,4.4,0.4L385.2,221C382.8,219.5,380.7,217.7,379,215.5z
	 M559.8,324.5c0,36.4-29.6,66-66,66c-0.5,0-1.1,0-1.6,0l-10.5-0.1l-245,1c-2.9,0.3-8.3,0-11.2,0c-46.8,0-84.8-37.9-84.8-84.8
	c0-46.8,37.9-84.8,84.8-84.8c8.3,0,16.7,1.2,24.6,3.6c17-51.8,65.3-86.9,119.8-86.9c67.5,0,122.8,53.3,125.9,120
	C531.4,259.7,559.7,288.8,559.8,324.5L559.8,324.5z M527.8,324.4c0.1-13.5-10.9-24.6-24.4-24.6c-4.3,0-8.5,1.1-12.3,3.2l-73.9-87.4
	c8.6-10.5,7-26-3.5-34.6c-10.5-8.6-26-7-34.6,3.5c-5.2,6.4-6.9,15.1-4.4,23l-62.8,33.8c-8.5-10.6-23.9-12.3-34.5-3.8
	c-8.2,6.6-11.3,17.6-7.7,27.5L215,297c-8.9-10.2-24.4-11.3-34.6-2.4c-10.2,8.9-11.3,24.4-2.4,34.6c8.9,10.2,24.4,11.3,34.6,2.4
	c2.8-2.4,5-5.4,6.4-8.8l98.4,22.2c0,0.3,0,0.6,0,0.9c0,13.6,10.9,24.6,24.5,24.6c13.1,0,23.9-10.2,24.6-23.3L479.9,332
	c4.3,12.9,18.1,19.9,31,15.6C521,344.3,527.8,334.9,527.8,324.4L527.8,324.4z"/>
<g>
	<g>
		<defs>
			<rect id="SVGID_1_" x="61.8" y="335.6" width="582.2" height="291.1"/>
		</defs>
		<clipPath id="SVGID_2_">
			<use xlink:href="#SVGID_1_"  style="overflow:visible;"/>
		</clipPath>
		<g class="st2">
			<defs>
				<rect id="SVGID_3_" x="61.8" y="335.6" width="582.2" height="291.1"/>
			</defs>
			<clipPath id="SVGID_4_">
				<use xlink:href="#SVGID_3_"  style="overflow:visible;"/>
			</clipPath>
			<path class="st3" d="M125.2,523.9c-0.9,8-3.7,14.2-8.6,18.4c-4.9,4.3-11.3,6.4-19.4,6.4c-5.6,0-10.6-1.4-15-4.2
				c-4.3-2.8-7.7-6.8-10.1-12c-2.4-5.2-3.6-11.1-3.6-17.8v-9.9c0-6.8,1.2-12.8,3.6-18c2.4-5.2,5.8-9.3,10.2-12.1
				c4.4-2.8,9.6-4.3,15.3-4.3c8.2,0,14.6,2.2,19.3,6.6c4.7,4.4,7.5,10.5,8.2,18.2h-6.5c-1.6-12.9-8.6-19.4-21.1-19.4
				c-6.9,0-12.4,2.6-16.5,7.7C77,488.8,75,495.9,75,505v9.3c0,8.8,2,15.8,6,21c4,5.2,9.4,7.9,16.2,7.9c6.7,0,11.8-1.6,15.2-4.8
				c3.4-3.2,5.5-8.1,6.3-14.5H125.2z"/>
			<path class="st3" d="M123.9,523.9c-0.8,6.4-2.9,12.6-7.7,17.1c-4.5,4.2-10.5,6-16.5,6.4c-7.1,0.4-14.1-1.3-19.6-6
				c-4.8-4.2-7.8-10.1-9.2-16.3c-1.1-4.7-1.2-9.5-1.2-14.3c0-3.8-0.1-7.5,0.3-11.3c1.4-13.6,9.8-26,24.2-27.6
				c6.8-0.7,14.3,0.4,19.9,4.5c6.1,4.4,8.9,11.6,9.7,18.9c0.4-0.4,0.8-0.8,1.3-1.3h-6.5c0.4,0.4,0.8,0.8,1.3,1.3
				c-1.3-9.9-6.4-18.3-16.8-20.2c-5.5-1-11.4-0.6-16.4,2.1c-5,2.7-8.5,7.4-10.5,12.6c-3.2,8.3-2.8,18-2.5,26.8
				c0.5,11.6,5.7,24.7,18.2,27.4c6.1,1.3,13.8,0.6,19.1-2.9c5.6-3.8,8-10.4,8.8-16.8c-0.4,0.3-0.8,0.6-1.2,0.9h6.5
				c1.6,0,1.6-2.5,0-2.5h-6.5c-0.5,0-1.1,0.4-1.2,0.9c-0.7,5.3-2.3,10.8-6.5,14.4c-4.1,3.5-10.2,4.3-15.4,4
				c-12.2-0.7-18.3-12.2-19.2-23.2c-0.3-3.3-0.2-6.7-0.2-10c0-3.9-0.1-7.9,0.6-11.8c0.9-5.2,2.9-10.3,6.6-14.1
				c3.9-4.1,9.2-5.8,14.8-5.7c4.7,0.1,9.5,1.2,13,4.5c3.8,3.5,5.4,8.6,6.1,13.7c0.1,0.7,0.5,1.3,1.3,1.3h6.5c0.6,0,1.3-0.6,1.3-1.3
				c-0.7-6.7-2.9-13.2-7.6-18.1c-4.6-4.8-10.9-7.2-17.4-7.8c-7.2-0.7-14.7,0.7-20.7,4.9c-5.7,4-9.5,10-11.5,16.7
				c-1.7,5.5-1.9,11.2-1.9,16.9c0,4.8-0.1,9.7,0.6,14.5c2.2,14.7,12.5,27,28,27.6c7.5,0.3,15.3-1.4,21.1-6.3
				c6-4.9,8.6-12.3,9.5-19.7C126.6,522.3,124.1,522.3,123.9,523.9"/>
			<rect x="142.8" y="467.3" class="st3" width="6.3" height="80.3"/>
			<path class="st3" d="M149,546.3h-6.3c0.4,0.4,0.8,0.8,1.3,1.3v-70.2v-10.1c-0.4,0.4-0.8,0.8-1.3,1.3h6.3
				c-0.4-0.4-0.8-0.8-1.3-1.3v70.2v10.1c0,1.6,2.5,1.6,2.5,0v-70.2v-10.1c0-0.7-0.6-1.3-1.3-1.3h-6.3c-0.7,0-1.3,0.6-1.3,1.3v70.2
				v10.1c0,0.7,0.6,1.3,1.3,1.3h6.3C150.7,548.9,150.7,546.3,149,546.3"/>
			<path class="st3" d="M165.3,518.5c0-5.4,1.1-10.3,3.2-14.7c2.1-4.4,5.1-7.7,8.9-10.2c3.9-2.4,8.2-3.6,13.1-3.6
				c7.5,0,13.6,2.6,18.3,7.9c4.7,5.3,7,12.3,7,21v1.3c0,5.5-1.1,10.4-3.2,14.8c-2.1,4.4-5.1,7.7-8.9,10.1c-3.8,2.4-8.2,3.6-13.1,3.6
				c-7.5,0-13.6-2.6-18.3-7.9c-4.7-5.3-7-12.3-7-21V518.5z M171.5,520.2c0,6.8,1.8,12.3,5.3,16.7c3.5,4.3,8.1,6.5,13.8,6.5
				c5.6,0,10.2-2.2,13.7-6.5c3.5-4.3,5.3-10.1,5.3-17.2v-1.2c0-4.3-0.8-8.3-2.4-11.9c-1.6-3.6-3.9-6.4-6.7-8.3c-2.9-2-6.2-3-9.9-3
				c-5.6,0-10.1,2.2-13.7,6.6c-3.5,4.4-5.3,10.1-5.3,17.2V520.2z"/>
			<path class="st3" d="M166.5,518.5c0.1-11.6,5.7-23.4,17.7-26.5c10.9-2.8,22.1,2,27.2,12.1c4.6,9.2,4.4,22.3-0.4,31.3
				c-5.5,10.3-18,14.5-28.9,10.6C170.5,541.8,166.5,529.7,166.5,518.5c0-1.6-2.5-1.6-2.5,0c0,11.3,3.7,23.2,14.5,28.7
				c10.6,5.4,24.8,2.8,32.2-6.6c7.3-9.4,8.3-24.2,4.1-35.1c-4.3-11.1-14.9-17.7-26.8-16.6c-15.4,1.4-23.8,15.2-23.9,29.6
				C164,520.1,166.5,520.1,166.5,518.5"/>
			<path class="st3" d="M170.3,520.2c0.1,9.5,4.1,20,13.8,23.4c9.1,3.2,18.8-0.9,23.4-9.2c4.5-8.2,4.6-20,0.8-28.5
				c-4.1-9.2-14.4-14.4-24.2-10.9C173.6,498.8,170.3,510.2,170.3,520.2c0,1.6,2.5,1.6,2.5,0c0-7.9,1.9-16.6,9-21.2
				c7.7-5,18.1-2.1,22.9,5.5c8.2,13.2,3.2,39.6-16.2,37.5c-10.8-1.2-15.5-12.1-15.6-21.8C172.8,518.6,170.3,518.6,170.3,520.2"/>
			<path class="st3" d="M423.4,474.7c0-1.2,0.4-2.2,1.2-3c0.8-0.8,1.8-1.2,3.1-1.2c1.3,0,2.4,0.4,3.2,1.2c0.8,0.8,1.2,1.8,1.2,3
				c0,1.2-0.4,2.2-1.2,3c-0.8,0.8-1.8,1.2-3.2,1.2c-1.3,0-2.4-0.4-3.1-1.2C423.8,476.8,423.4,475.9,423.4,474.7 M430.8,547.6h-6.3
				V491h6.3V547.6z"/>
			<path class="st3" d="M424.7,474.7c0-0.1,0-0.2,0-0.3c0,0,0-0.3,0-0.2c0,0.2,0.1-0.3,0-0.2c0-0.1,0-0.2,0.1-0.3
				c0.1-0.2,0.2-0.5,0.4-0.8c0.1-0.2,0.1-0.1,0-0.1c0.1-0.1,0.1-0.2,0.2-0.2c0.1-0.1,0.1-0.1,0.2-0.2c0,0,0.2-0.2,0.1-0.1
				c0.1-0.1,0.3-0.2,0.4-0.3c0.1,0,0.1-0.1,0.2-0.1c-0.2,0.1,0.2,0,0.2,0c0.7-0.2,1.4-0.2,2-0.1c0.2,0,0.3,0.1,0.5,0.1
				c0.2,0.1,0.1,0,0,0c0.1,0,0.2,0.1,0.3,0.1c0.1,0.1,0.2,0.1,0.3,0.2c0,0,0.2,0.1,0,0c0.2,0.1,0.3,0.3,0.5,0.5c0,0,0.1,0.2,0,0.1
				c0.1,0.1,0.1,0.1,0.1,0.2c0,0.1,0.1,0.1,0.1,0.2c0,0,0.2,0.3,0.1,0.2c0.1,0.3,0.2,0.7,0.2,0.9c0,0.2,0,0.4,0,0.6
				c0,0.1,0,0.2,0,0.3c0-0.2,0,0,0,0.1c0,0.2-0.1,0.4-0.2,0.6c-0.1,0.2,0.1-0.2,0,0.1c-0.1,0.1-0.1,0.2-0.2,0.3
				c-0.2,0.3-0.3,0.4-0.6,0.7c-0.2,0.2-0.1,0.1,0,0c-0.1,0.1-0.2,0.1-0.3,0.2c-0.1,0.1-0.2,0.1-0.3,0.1c-0.2,0.1,0,0-0.1,0
				c-0.2,0.1-0.4,0.1-0.6,0.2c-0.1,0-0.2,0-0.3,0.1c0.2,0,0,0-0.1,0c-0.2,0-0.4,0-0.6,0c-0.1,0-0.2,0-0.3,0c-0.1,0-0.4,0-0.3,0
				c0.1,0-0.1,0-0.2,0c-0.1,0-0.3-0.1-0.4-0.1c-0.1,0-0.2-0.1-0.2-0.1c-0.1,0-0.1,0,0,0c-0.1,0-0.1-0.1-0.2-0.1
				c-0.1,0-0.1-0.1-0.2-0.1c0,0-0.3-0.2-0.2-0.1c0.1,0.1-0.1-0.1-0.1-0.1c-0.1-0.1-0.2-0.2-0.3-0.3c-0.1-0.2,0.1,0.1,0,0
				c-0.1-0.1-0.1-0.2-0.2-0.3c0-0.1-0.1-0.1-0.1-0.2c0-0.1-0.1-0.1-0.1-0.2c0,0.1,0,0.1,0,0c-0.1-0.2-0.1-0.4-0.2-0.6
				c0-0.2,0,0.2,0-0.1C424.7,475,424.7,474.8,424.7,474.7c0-0.7-0.6-1.3-1.3-1.3c-0.7,0-1.3,0.6-1.3,1.3c0,2.3,1.4,4.4,3.7,5.2
				c2.1,0.7,4.8,0.2,6.2-1.6c1.5-1.8,1.7-4.5,0.5-6.5c-1.3-2.1-3.7-2.8-6-2.5c-2.6,0.4-4.3,2.8-4.4,5.4c0,0.7,0.6,1.3,1.3,1.3
				C424.1,475.9,424.7,475.4,424.7,474.7"/>
			<path class="st3" d="M430.8,546.3h-6.3c0.4,0.4,0.8,0.8,1.3,1.3V498v-7c-0.4,0.4-0.8,0.8-1.3,1.3h6.3l-1.3-1.3v49.6v7
				c0,1.6,2.5,1.6,2.5,0V498v-7c0-0.7-0.6-1.3-1.3-1.3h-6.3c-0.7,0-1.3,0.6-1.3,1.3v49.6v7c0,0.7,0.6,1.3,1.3,1.3h6.3
				C432.4,548.9,432.4,546.3,430.8,546.3"/>
			<path class="st3" d="M484.4,533.2c0-3.1-1.2-5.6-3.7-7.5c-2.5-1.9-6.2-3.4-11.3-4.4c-5-1.1-8.9-2.3-11.7-3.7
				c-2.8-1.4-4.8-3.1-6.2-5c-1.3-2-2-4.4-2-7.2c0-4.5,1.9-8.2,5.6-11.1c3.7-2.9,8.5-4.4,14.3-4.4c6.3,0,11.4,1.6,15.2,4.7
				c3.8,3.1,5.7,7.2,5.7,12.2h-6.3c0-3.3-1.4-6.1-4.2-8.3c-2.8-2.2-6.3-3.3-10.5-3.3c-4.1,0-7.4,0.9-9.9,2.7
				c-2.5,1.8-3.7,4.2-3.7,7.1c0,2.8,1,5,3.1,6.6c2.1,1.6,5.9,3,11.3,4.3c5.5,1.3,9.6,2.7,12.3,4.1c2.7,1.5,4.8,3.2,6.1,5.3
				c1.3,2.1,2,4.5,2,7.5c0,4.8-1.9,8.6-5.8,11.5c-3.9,2.9-8.9,4.3-15.1,4.3c-6.6,0-11.9-1.6-16-4.8c-4.1-3.2-6.1-7.2-6.1-12.1h6.3
				c0.2,3.7,1.8,6.5,4.6,8.6c2.8,2,6.6,3.1,11.3,3.1c4.4,0,7.9-1,10.6-2.9C483,538.6,484.4,536.1,484.4,533.2"/>
			<path class="st3" d="M485.6,533.2c-0.5-14.2-20.7-12.1-29.4-17.8c-6.2-4.1-7.3-12.9-2.2-18.4c5-5.4,13.2-6.5,20.2-5.4
				c8.1,1.3,14.7,6.7,14.9,15.3c0.4-0.4,0.8-0.8,1.3-1.3h-6.3l1.3,1.3c-0.3-10-11-13.9-19.6-12.5c-4.2,0.6-8.6,2.8-10.4,6.9
				c-1.6,3.5-0.9,8.1,1.9,10.8c3,2.9,7.8,4,11.7,5c5,1.3,10.4,2.4,14.7,5.3c4.8,3.2,6.8,8.9,5.2,14.5c-1.5,5.2-6.4,8.3-11.3,9.7
				c-11,3-28.3-0.7-28.6-14.7c-0.4,0.4-0.8,0.8-1.3,1.3h6.3l-1.3-1.3c0.8,8.5,8,12.5,15.9,12.8C475.9,544.9,485.3,541.9,485.6,533.2
				c0.1-1.6-2.5-1.6-2.5,0c-0.3,7.3-8.8,9.1-14.6,8.9c-6.4-0.3-12.7-3.3-13.3-10.3c-0.1-0.7-0.5-1.3-1.3-1.3h-6.3
				c-0.7,0-1.3,0.6-1.3,1.3c0.2,9.7,8.2,16.1,17.2,17.6c8.8,1.5,20.1,0.2,25.7-7.7c2.5-3.6,3.2-8.2,2.3-12.5c-0.9-4.5-4.1-7.8-8-10
				c-4.3-2.4-9.2-3.5-14-4.7c-4.3-1.1-11.2-2.4-12.4-7.5c-3.1-13.5,25.1-14.4,25.6-0.2c0,0.7,0.6,1.3,1.3,1.3h6.3
				c0.7,0,1.3-0.6,1.3-1.3c-0.3-16.1-19.7-21.7-32.7-16.2c-6.2,2.6-10.8,8.2-10.7,15.2c0.2,7.4,5.5,11.9,12,14.3
				c7.2,2.7,22.5,2.7,22.8,13.1C483.2,534.8,485.7,534.8,485.6,533.2"/>
			<path class="st3" d="M507,474.7c0-1.2,0.4-2.2,1.2-3c0.8-0.8,1.8-1.2,3.1-1.2c1.3,0,2.4,0.4,3.2,1.2c0.8,0.8,1.2,1.8,1.2,3
				c0,1.2-0.4,2.2-1.2,3c-0.8,0.8-1.8,1.2-3.2,1.2c-1.3,0-2.4-0.4-3.1-1.2C507.4,476.8,507,475.9,507,474.7 M514.4,547.6h-6.3V491
				h6.3V547.6z"/>
			<path class="st3" d="M508.3,474.7c0-0.1,0-0.2,0-0.3c0,0,0-0.3,0-0.2c0,0.2,0.1-0.3,0-0.2c0-0.1,0-0.2,0.1-0.3
				c0.1-0.2,0.2-0.5,0.4-0.8c0.1-0.2,0.1-0.1,0-0.1c0.1-0.1,0.1-0.2,0.2-0.2c0.1-0.1,0.1-0.1,0.2-0.2c0,0,0.2-0.2,0.1-0.1
				c0.1-0.1,0.3-0.2,0.4-0.3c0.1,0,0.1-0.1,0.2-0.1c-0.2,0.1,0.2,0,0.2,0c0.7-0.2,1.4-0.2,2-0.1c0.2,0,0.3,0.1,0.5,0.1
				c0.2,0.1,0.1,0,0,0c0.1,0,0.2,0.1,0.3,0.1c0.1,0.1,0.2,0.1,0.3,0.2c0,0,0.2,0.1,0,0c0.2,0.1,0.3,0.3,0.5,0.5c0,0,0.1,0.2,0,0.1
				c0.1,0.1,0.1,0.1,0.1,0.2c0,0.1,0.1,0.1,0.1,0.2c0,0,0.2,0.3,0.1,0.2c0.1,0.3,0.2,0.7,0.2,0.9c0,0.2,0,0.4,0,0.6
				c0,0.1,0,0.2,0,0.3c0-0.2,0,0,0,0.1c0,0.2-0.1,0.4-0.2,0.6c-0.1,0.2,0.1-0.2,0,0.1c-0.1,0.1-0.1,0.2-0.2,0.3
				c-0.2,0.3-0.3,0.4-0.6,0.7c-0.2,0.2-0.1,0.1,0,0c-0.1,0.1-0.2,0.1-0.3,0.2c-0.1,0.1-0.2,0.1-0.3,0.1c-0.2,0.1,0,0-0.1,0
				c-0.2,0.1-0.4,0.1-0.5,0.2c-0.1,0-0.2,0-0.3,0.1c0.2,0,0,0-0.1,0c-0.2,0-0.4,0-0.6,0c-0.1,0-0.2,0-0.3,0c-0.1,0-0.4,0-0.3,0
				c0.1,0-0.1,0-0.2,0c-0.1,0-0.2-0.1-0.4-0.1c-0.1,0-0.2-0.1-0.2-0.1c-0.1,0-0.1,0,0,0c-0.1,0-0.1-0.1-0.2-0.1
				c-0.1,0-0.1-0.1-0.2-0.1c0,0-0.3-0.2-0.2-0.1c0.1,0.1-0.1-0.1-0.1-0.1c-0.1-0.1-0.2-0.2-0.3-0.3c-0.1-0.2,0.1,0.1,0,0
				c-0.1-0.1-0.1-0.2-0.2-0.3c0-0.1-0.1-0.1-0.1-0.2c0-0.1-0.1-0.1-0.1-0.2c0,0.1,0,0.1,0,0c-0.1-0.2-0.1-0.4-0.2-0.6
				c0-0.2,0,0.2,0-0.1C508.3,475,508.3,474.8,508.3,474.7c0-0.7-0.6-1.3-1.3-1.3c-0.7,0-1.3,0.6-1.3,1.3c0,2.3,1.4,4.4,3.7,5.2
				c2.1,0.7,4.8,0.2,6.2-1.6c1.5-1.8,1.7-4.5,0.5-6.5c-1.3-2.1-3.7-2.8-6-2.5c-2.6,0.4-4.3,2.8-4.4,5.4c0,0.7,0.6,1.3,1.3,1.3
				C507.7,475.9,508.3,475.4,508.3,474.7"/>
			<path class="st3" d="M514.4,546.3h-6.3c0.4,0.4,0.8,0.8,1.3,1.3V498v-7l-1.3,1.3h6.3c-0.4-0.4-0.8-0.8-1.3-1.3v49.6v7
				c0,1.6,2.5,1.6,2.5,0V498v-7c0-0.7-0.6-1.3-1.3-1.3h-6.3c-0.7,0-1.3,0.6-1.3,1.3v49.6v7c0,0.7,0.6,1.3,1.3,1.3h6.3
				C516,548.9,516,546.3,514.4,546.3"/>
			<path class="st3" d="M530.6,518.5c0-5.4,1.1-10.3,3.2-14.7c2.1-4.4,5.1-7.7,8.9-10.2c3.9-2.4,8.2-3.6,13.1-3.6
				c7.5,0,13.6,2.6,18.3,7.9c4.7,5.3,7,12.3,7,21v1.3c0,5.5-1.1,10.4-3.2,14.8c-2.1,4.4-5.1,7.7-8.9,10.1c-3.8,2.4-8.2,3.6-13.1,3.6
				c-7.5,0-13.6-2.6-18.3-7.9c-4.7-5.3-7-12.3-7-21V518.5z M536.9,520.2c0,6.8,1.8,12.3,5.3,16.7c3.5,4.3,8.1,6.5,13.8,6.5
				c5.6,0,10.2-2.2,13.7-6.5c3.5-4.3,5.3-10.1,5.3-17.2v-1.2c0-4.3-0.8-8.3-2.4-11.9c-1.6-3.6-3.9-6.4-6.7-8.3c-2.9-2-6.2-3-9.9-3
				c-5.6,0-10.1,2.2-13.6,6.6c-3.5,4.4-5.3,10.1-5.3,17.2V520.2z"/>
			<path class="st3" d="M531.9,518.5c0.1-11.6,5.7-23.4,17.7-26.5c10.9-2.8,22.1,2,27.2,12.1c4.6,9.2,4.4,22.3-0.4,31.3
				c-5.5,10.3-18,14.5-28.9,10.6C535.8,541.8,531.9,529.7,531.9,518.5c0-1.6-2.5-1.6-2.5,0c0,11.3,3.7,23.2,14.5,28.7
				c10.6,5.4,24.8,2.8,32.2-6.6c7.3-9.4,8.4-24.2,4.1-35.1c-4.3-11.1-14.9-17.7-26.8-16.6c-15.4,1.4-23.8,15.2-23.9,29.6
				C529.3,520.1,531.9,520.1,531.9,518.5"/>
			<path class="st3" d="M535.6,520.2c0.1,9.6,4.1,20,13.8,23.4c9.1,3.2,18.8-0.9,23.4-9.2c4.5-8.2,4.6-20,0.8-28.5
				c-4.1-9.2-14.4-14.4-24.2-10.9C539,498.8,535.6,510.2,535.6,520.2c0,1.6,2.5,1.6,2.5,0c0-7.9,1.9-16.6,9-21.2
				c7.7-5,18.1-2.1,22.9,5.5c8.2,13.2,3.2,39.6-16.2,37.5c-10.8-1.2-15.5-12.1-15.6-21.8C538.1,518.6,535.6,518.6,535.6,520.2"/>
			<polygon class="st3" points="379.5,538.2 379.5,538.2 379.9,539.8 379.5,538.2 355.6,471.5 348.5,471.5 376.9,547.6 383.1,547.6
							"/>
			<path class="st3" d="M378.3,538.5l0.4,1.6c0.4,1.6,2.8,0.9,2.4-0.7c-2-7.7-5.3-15.2-8-22.7c-4.4-12.3-8.9-24.7-13.3-37
				c-1-2.9-2.1-5.7-3.1-8.6c-0.2-0.5-0.6-0.9-1.2-0.9h-7c-0.8,0-1.5,0.8-1.2,1.6c8.3,22.3,16.6,44.5,24.9,66.8l3.5,9.4
				c0.2,0.5,0.6,0.9,1.2,0.9h6.2c0.8,0,1.5-0.8,1.2-1.6c-1.2-3.1-2.4-6.3-3.6-9.4C380.2,536.3,377.7,537,378.3,538.5
				c1.2,3.1,2.4,6.3,3.6,9.4c0.4-0.5,0.8-1.1,1.2-1.6h-6.2c0.4,0.3,0.8,0.6,1.2,0.9c-8.3-22.3-16.6-44.5-24.9-66.8
				c-1.2-3.1-2.3-6.2-3.5-9.4c-0.4,0.5-0.8,1.1-1.2,1.6h7c-0.4-0.3-0.8-0.6-1.2-0.9c7.1,19.9,14.3,39.8,21.4,59.7
				c1,2.9,2.2,5.7,2.9,8.7c0.4,1.6,2.8,0.9,2.4-0.7l-0.4-1.6C380.3,536.3,377.9,536.9,378.3,538.5"/>
			<path class="st3" d="M388.4,538.7l24.8-66.6c0.1-0.3-0.1-0.7-0.5-0.7h-6c-0.2,0-0.4,0.1-0.5,0.3l-21.4,59.6c0,0.1,0,0.2,0,0.3
				l2.6,7C387.6,539.1,388.2,539.1,388.4,538.7"/>
			<path class="st3" d="M389.6,539c7.9-21.2,15.8-42.4,23.7-63.6c0.3-0.9,0.9-1.9,1.1-2.9c0.5-3-3.1-2.4-4.9-2.4
				c-1.9,0-3.6-0.4-4.5,1.5c-0.6,1.2-0.9,2.6-1.4,3.8c-4.6,12.9-9.2,25.8-13.9,38.6c-1.9,5.3-3.8,10.5-5.7,15.8
				c-0.6,1.6-0.3,2.4,0.3,4c0.6,1.6,2.1,8.5,4.9,5.6c1.1-1.2-0.7-3-1.8-1.8c0.4,0.2,0.8,0.3,1.1,0.5c0-0.1-0.1-0.2-0.1-0.3
				c0-0.2-0.3-0.7-0.3-0.9c-0.3-0.7-0.5-1.4-0.8-2.1c-0.3-0.9-1.4-3.1-1.4-3.5c0,0,0.7-1.7,0.8-2.2c1.8-5,3.6-10,5.4-14.9
				c4.5-12.5,9-24.9,13.4-37.4c0.4-1.1,1.8-3.4,1.6-4.5c0-0.1,0.1-0.2,0.1-0.3c0.1,0.2-0.6,0.4-0.5,0.6c0,0.1,0.9,0,0.9,0h2.8
				c0.5,0,1.8,0.1,1.8,0c-0.2-0.4-0.4-0.7-0.6-1.1c0.1,0.6-0.4,1.4-0.6,2c-0.6,1.6-1.2,3.1-1.8,4.7c-2,5.3-4,10.7-6,16
				c-4.4,11.9-8.9,23.8-13.3,35.7l-3.1,8.3C386.6,539.9,389.1,540.5,389.6,539"/>
			<path class="st3" d="M278.1,531c0,12.9-8.7,21-25.6,21c-16.4,0-25.5-8.2-25.5-21v-36.4c0-0.7,0.6-1.3,1.3-1.3h6.6
				c0.7,0,1.3,0.6,1.3,1.3v35.9c0,7.6,8.6,12.4,16.3,12.4c8,0,16.4-4.4,16.4-12v-36.3c0-0.7,0.6-1.3,1.3-1.3h6.6
				c0.7,0,1.3,0.6,1.3,1.3V531z"/>
			<path class="st3" d="M643.3,547.4c0,0.7-0.6,1.3-1.3,1.3h-6.6c-0.7,0-1.3-0.6-1.3-1.3v-36.3c0-7.6-8.4-12-16.4-12
				c-7.6,0-16.3,4.7-16.3,12.4v35.9c0,0.7-0.6,1.3-1.3,1.3h-6.6c-0.7,0-1.3-0.6-1.3-1.3V511c0-12.7,9.1-21,25.5-21
				c16.9,0,25.6,8.1,25.6,21V547.4z"/>
			<path class="st3" d="M330.5,522.1v1.2c0,7.1-1.8,12.8-5.3,17.2c-3.5,4.3-8.1,6.5-13.7,6.5c-5.7,0-10.3-2.2-13.8-6.5
				c-3.5-4.3-5.3-9.9-5.3-16.7v-1.2c0-7.1,1.8-12.8,5.3-17.2c3.5-4.4,8.1-6.6,13.6-6.6c3.7,0,7,1,9.9,3c0.7,0.5,1.4,1,2,1.6v-7
				c-3.5-1.9-7.4-2.8-11.9-2.8c-4.9,0-9.2,1.2-13.1,3.6c-3.9,2.4-6.8,5.8-8.9,10.2c-2.1,4.4-3.2,9.3-3.2,14.7v1.3
				c0,8.7,2.3,15.7,7,21c4.7,5.3,10.8,7.9,18.3,7.9c4.9,0,9.3-1.2,13.1-3.6c3.8-2.4,6.8-5.7,8.9-10.1c2.1-4.4,2.2-9.3,3.2-14.8
				l0-3.4l0.4-49h-6.3v31.4L330.5,522.1z"/>
			<path class="st3" d="M329.3,522.1c0,6.8-1.2,13.8-6.1,18.9c-5,5.1-13.3,6.3-19.6,2.8c-6.8-3.8-9.6-11.7-9.8-19.1
				c-0.2-6.7,0.9-13.7,5.4-18.9c5.9-6.9,16.5-7.4,23.3-1.5c0.8,0.7,2.2,0.3,2.2-0.9v-7c0-0.4-0.2-0.9-0.6-1.1
				c-7.9-4.1-17.9-4.1-25.6,0.4c-7.7,4.5-12,12.9-13.1,21.5c-1,8.1-0.1,17,4.2,24c4.2,6.9,11.2,11.3,19.3,12.1
				c8.7,0.8,17.5-2.4,22.9-9.4c2.8-3.6,4.3-7.6,5.1-12.1c0.6-3.6,1.2-7.2,1.2-10.9c0-7.4,0.1-14.7,0.2-22.1
				c0.1-9.2,0.1-18.3,0.2-27.5c0-0.7-0.6-1.3-1.3-1.3h-6.3c-0.7,0-1.3,0.6-1.3,1.3c0,12.9,0.1,25.9-0.1,38.8L329.3,522.1
				c0,1.6,2.5,1.6,2.5,0c0.2-13.9,0.3-27.7,0.3-41.5v-9.1c-0.4,0.4-0.8,0.8-1.3,1.3h6.3c-0.4-0.4-0.8-0.8-1.3-1.3
				c-0.1,15.4-0.2,30.8-0.3,46.2c-0.1,10.5-0.8,22.5-10.2,29.1c-7,5-17.3,5.7-24.9,1.6c-7.3-3.9-11.4-11.5-12.5-19.4
				c-1.3-9.2,0-19.7,6.5-26.8c7.1-7.8,19.1-9.5,28.4-4.7c-0.2-0.4-0.4-0.7-0.6-1.1v7c0.7-0.3,1.4-0.6,2.2-0.9
				c-6.3-5.5-16-6.7-23.1-1.9c-7.2,4.9-9.8,13.6-9.9,22c-0.1,8,2,16.3,8.5,21.5c6.1,4.9,15.4,5.5,22,1.2
				c7.9-5.1,10.1-14.5,10.1-23.4C331.8,520.5,329.3,520.5,329.3,522.1"/>
		</g>
	</g>
</g>
</svg>
